<svg version="1" xmlns="http://www.w3.org/2000/svg" width="1365.333" height="1365.333" viewBox="0 0 1024.000000 1024.000000"><path d="M483.8 16.5c-.2.2-4.7.6-10.1.9-10.7.7-18.2 1.4-23.7 2.1-1.9.3-5.3.7-7.5.9-24.9 3-63.8 11.8-88.5 19.9-28.3 9.4-64.9 25.7-84.8 37.8-3.5 2.1-6.6 3.9-6.9 3.9-.8 0-22.6 14.2-32.8 21.4-9.7 6.8-32.3 24.3-35.6 27.5-.9.9-4.1 3.6-7 6.1-16.9 14.1-51 49.4-63.9 66-1.9 2.5-3.7 4.7-4 5-2.9 2.5-37 51.6-37 53.3 0 .2-2.3 4.4-5.1 9.3-14 24.2-28.1 56.6-37.8 86.5-5.6 17.4-14 52.6-15.6 65.3-.3 2.7-.8 5.2-.9 5.5-.4.6-.9 4.1-2.2 14.8-.3 2.7-.7 5.9-.9 7.3-.2 1.4-.6 5.4-1 9-.3 3.6-.8 8.7-1.1 11.5-.8 7.8-1.3 65.6-.5 65.3.3-.2 2.7-1.8 5.1-3.6 2.5-1.9 24.9-14.9 49.8-29l45.2-25.7 5.3-9.5c2.9-5.2 17.5-31.6 32.4-58.5 24.5-44.4 27.1-49.6 27.8-55 .8-7.3 1.3-10.5 2.5-17 .5-2.8 1.1-6.4 1.4-8 .9-6.3 6.6-28.5 10.1-39.5 19.3-60 53.5-110.6 103.6-153.5 6.1-5.2 13.7-10.7 16.8-12.2 5-2.5 6.7-2.8 15.6-2.8 13.6 0 20.5 2.6 29 11 12.1 11.9 16.1 28 10.9 44-2.5 7.4-7.4 14.2-15.6 21.5-16.4 14.6-30.4 29.6-41.3 44-2.6 3.6-5.3 7.1-5.8 7.8-.6.7 2.7-1 7.2-3.8 15.6-9.7 28-16 42.9-21.9 18.5-7.3 36-12.2 56.2-15.6 1.9-.3 7.7-.9 12.8-1.2 8-.5 10.1-.3 15.5 1.7 3.4 1.2 7.6 3.2 9.2 4.3 4 2.7 11.7 10.7 13.2 13.7 1.1 2.2 3.3 7.7 3.5 9 2.8 12.9 2.8 14.8.7 24-2.5 10.6-12 21.8-22.7 26.7-6 2.7-6.6 2.9-16.7 4.3-14.3 2.1-25 4.7-35.2 8.5-7.1 2.7-23.1 10.5-26.6 13-2.2 1.6-2.2 1.6.8 1 1.7-.4 3.8-.9 4.7-1.1.9-.3 6.5-1.1 12.5-1.9 10.2-1.3 41.2-1.4 47.3-.1 1.4.2 4.3.7 6.5 1.1 23.4 3.4 53.2 13.3 67.4 22.5 10.3 6.5 17.2 17.6 18.8 30.2 3.3 24.1-16.6 46.8-40.9 46.9-7.6 0-10.7-.8-20-5.3-11.2-5.4-29.5-10.8-42.3-12.4-6.2-.8-25.3-.5-31.6.5-3.5.6-10 2-14.3 3.1-4.4 1.1-8.1 2-8.3 2-.1 0-.3.4-.3.9 0 .4 2.1.8 4.8.8 4.7 0 14.9.9 20.7 1.8 1.7.3 4.1.7 5.5.9 18.3 3 39.7 11.6 54.9 22.3 9.5 6.7 24.7 22.4 31.5 32.6 6.9 10.4 15 25.7 16.5 31.4 2.5 9.2 1.3 18.2-3.6 27.5-6 11.4-17.3 20.6-27.1 22.1-4.5.7-5.3 1.7-1.5 1.7 1.7 0 6.2 1.6 10.1 3.6 8.3 4.1 14.4 10.4 19 19.7 6.6 13.1 5.8 23.1-3.3 40.5-20.4 39.3-58.4 66.6-102 73.6-8.3 1.3-29.2 1.4-38 .1-1.6-.2-6.4-.7-10.5-1.1-4.1-.3-8.2-.7-9.1-.9-.8-.2-5.5-.6-10.5-1-4.9-.4-10-.8-11.4-1-1.4-.2-6.1-.7-10.5-1-4.4-.4-9.1-.8-10.5-1-1.4-.2-5.9-.6-10-1-4.1-.3-9.1-.8-11-1-1.9-.2-6.6-.7-10.5-1-3.8-.4-8.8-.9-11-1.1-2.2-.2-6.7-.6-10-.9-3.3-.3-8.1-.8-10.7-1-4.4-.5-6.4.3-36.5 15.1-85 41.8-80.2 39.6-86.8 39.6-7.2 0-13.8-2.6-18.9-7.4-3.5-3.3-10.5-16.9-55.9-108.8-14.1-28.6-14.6-29.2-11.8-13.5.6 3.3 1.3 7.6 1.5 9.5 2.5 20.1 14.4 64.2 24.1 89.5 10.3 26.9 26.3 59.1 40 80.5 2.3 3.6 5.7 8.9 7.5 11.8 1.8 3 3.8 5.9 4.4 6.6.6.6 2.6 3.4 4.5 6.1 3.6 5.2 22 29.2 24.3 31.6.7.8 4 4.6 7.3 8.4 11.3 13.3 36.9 39.2 49.5 50 3 2.6 6.9 5.9 8.5 7.4 1.7 1.4 5.3 4.4 8 6.6 2.8 2.2 5.2 4.3 5.5 4.6 1.4 1.7 30.2 22.3 39.7 28.3 18.8 12.1 41.6 24.6 58.3 32.1 4.7 2.1 10.5 4.7 13 5.7 23.8 10.7 67.9 23.9 95.5 28.8 3.3.5 6.9 1.2 8 1.4 1.1.2 5.6.9 10 1.6 4.4.6 9 1.3 10.3 1.5 1.3.2 5.3.7 9 1 3.7.4 7.8.8 9 1 7.7 1.2 26.3 1.9 51.7 1.9 25.2 0 50.7-.9 52.5-1.8.3-.2 3.9-.7 8-1 4.1-.4 9-.9 10.8-1.2 5.8-.8 9.7-1.4 12.1-1.8 1.3-.3 4.9-.8 8-1.2 3.1-.3 5.9-.8 6.2-1 .3-.2 2.1-.6 4-.9 17.3-3 57.1-14 69.9-19.2.8-.3 2-.7 2.5-.9 11.2-3.1 50-21.2 70-32.7 23.1-13.2 62.1-40.5 73.6-51.6.9-.9 4.1-3.6 7-6.1 23.1-19.4 58.3-57.3 77.5-83.5 1.6-2.2 3.2-4.4 3.7-5 11.5-15.3 27.4-41.2 37.9-61.5 18.1-34.9 32.3-74.4 40.7-112.6 2.6-12 6.8-36.4 7.6-43.9.3-3.3.8-6.9 1-8 .2-1.1.7-5.4 1-9.5.3-4.1.8-9.5 1.1-12 .2-2.5.6-17 .8-32.2l.5-27.8-2.2 1.2c-1.2.6-11.6 6.5-23.2 13.1-11.5 6.6-23 13.1-25.5 14.5-2.5 1.3-7.4 4.2-11 6.2-3.6 2.1-9 5.1-12 6.8-15.7 8.7-22.6 13-23.5 14.8-.5 1-3.9 7.1-7.4 13.4-3.6 6.3-7.4 13.3-8.6 15.5-1.2 2.2-6.9 12.3-12.5 22.5-5.7 10.2-11.7 21-13.3 24-1.7 3-7.2 13-12.2 22.1-6.1 10.9-9.4 18.1-9.8 21-.4 2.4-.9 6.4-1.2 8.9-.5 3.9-1.2 8.4-3.1 19-.3 1.4-1 4.3-1.6 6.5-.5 2.2-1.2 5.1-1.5 6.5-1.6 9.8-10.9 38.5-17 53-17.7 41.8-41.4 76.4-74.5 108.7-21.8 21.4-32.3 29.4-41.4 31.8-30.1 7.8-57.2-17.7-51.4-48.5 1.9-10.4 6.3-17.1 18.4-28.3 19.2-17.8 27.4-26.6 40.4-43.5 4.3-5.6 5.8-8.1 4.2-7.1-12.3 7.9-34.8 20.1-43.5 23.6-1.7.6-4.8 1.9-7 2.8-19.3 7.9-58.3 17.2-70.5 16.7-9.6-.3-22-5.8-29.2-12.8-9.4-9.1-13.4-25-10.1-39.9 4-17.4 19.4-29.3 41.3-31.9 2.5-.3 5.6-.8 7-1.1 1.4-.3 3.9-.8 5.5-1 8.1-1.4 24.3-7.3 36.3-13.2 7.3-3.6 13.1-6.7 12.9-7-.3-.2-2.6.1-5.3.7-2.7.6-7.1 1.3-9.9 1.6-2.7.3-7.5.9-10.5 1.4-6.1.9-35.2.6-41.5-.4-2.2-.4-5.4-.9-7.2-1.1-24-3.4-60.3-16.6-71.8-26.2-7.2-6.1-13-18.1-13.8-28.5-.9-10.4 3.5-23.3 10.5-31.3 6.8-7.6 19.1-13.3 29.4-13.6 7.7-.2 11.3.6 18.8 4 22.2 10.4 37.9 14.3 57.1 14.3 13.8 0 19.9-.7 30-3.2 4.4-1.2 9-2.4 10.3-2.7 4.2-1 2.2-1.9-5.1-2.1-4.1-.1-8.2-.4-9.3-.6-1-.2-4.8-.7-8.4-1.1-8.8-.9-24.5-4.9-33.6-8.5-30.8-12.3-52.2-32.2-69.4-64.5-9.1-17.1-9.8-28.3-2.6-42 5.8-11.1 15.6-18.8 27.5-21.8l5.4-1.4-4.7-.6c-9.7-1.4-19.3-8-25.9-17.9-8.8-13.3-9.4-25.9-2.1-40.8 20.5-41.4 55.2-68.2 100.4-77.5 9.6-2 29.5-2.5 43-1.1 4.7.5 9.6 1 11 1.1 1.4.2 6.1.6 10.5 1s9.1.9 10.5 1c1.4.2 6.1.6 10.5 1s8.7.9 9.7 1c.9.2 5.2.6 9.5 1 4.3.3 9.4.7 11.3 1 1.9.2 6.7.7 10.5 1 3.9.3 8.7.8 10.9 1.1 2.1.2 6.6.6 10 .9 3.3.3 7.7.7 9.6 1 15.5 1.9 14.7 2 26-3.6 5.8-2.8 23.1-11.3 38.5-18.9 15.4-7.5 35.4-17.3 44.5-21.8 9.1-4.5 18.4-8.5 20.7-9 7.8-1.8 17.6 1.4 24.2 8 3.2 3.1 7.2 10.9 54.8 107.3 6.8 13.8 7.3 14.6 6.7 10-.3-2.8-.8-5.9-1-7-.3-1.1-.7-3.6-.9-5.5-.3-1.9-.8-4.6-1.1-6-.3-1.4-.8-3.6-1-5-2.8-15.5-13.2-50.9-21.3-72.4-9.7-25.9-31.2-68.5-40.8-81.2-1.2-1.7-2.3-3.4-2.3-3.7 0-2.7-29.5-42.2-43.9-58.7-10.6-12.1-37.5-39.6-45.7-46.7-1.2-1-4.9-4.3-8.4-7.3-3.4-3-7.4-6.4-8.8-7.5-1.3-1.1-6.1-4.9-10.6-8.5-9.5-7.7-26.6-20-35.1-25.4-3.3-2.1-7.1-4.6-8.5-5.5-15.3-10.5-52.2-29.1-77-38.9-18.3-7.3-59-19.5-72.3-21.7-1.7-.3-6.4-1.2-10.4-2-3.9-.8-8.9-1.7-11-2-2.1-.3-6-1-8.8-1.5-2.7-.5-7.9-1.2-11.5-1.6-3.6-.4-6.8-.8-7.1-1-.3-.1-4.3-.6-9-.9-4.6-.3-10.2-.9-12.4-1.2-4.1-.5-68.2-1.3-68.7-.8z"/><path d="M643 429.6c-17.6 3.4-30.1 13.4-40 32.1-3.7 7.1-9.3 13.2-15.3 16.8-4.5 2.6-16.1 5.7-17.3 4.6-.4-.3-.4 0 0 .7.5.7 1 1.1 1.3.8.8-.8 10.6 2.4 15 5 6.3 3.6 11.4 9.4 17.3 19.6 6.1 10.5 15 20 22.5 24.2 2.8 1.5 8.4 3.6 12.5 4.7 31.3 8.1 59.2-8.1 68.3-39.7 1.9-6.4 2-20.2.1-27.9-4.3-18.7-20.7-35.2-39.9-40.2-2.8-.7-21.5-1.2-24.5-.7zM1003.5 441.5c.3 3.3.8 7.1 1 8.5.3 1.4.7 5.4 1 9 .2 3.6.8 10.8 1.1 16 .4 5.2.7 11 .7 12.7 0 1.8.2 3.3.6 3.3 1.5 0 7.1-6.7 8.5-10.2 3.3-7.9 1.5-15.8-7.9-34.3l-5.6-11 .6 6zM374.8 483.5c-.2.2-3.2.5-6.8.9-3.6.3-7.9 1-9.6 1.5-18.4 5.3-34.4 23.9-38 44.1-.7 4.5-.7 15.5.1 20 2.9 16.7 14.3 32.2 28.6 39.2 8.9 4.3 15.4 5.8 25.7 5.8 22-.1 37.4-9.5 49.3-30.1 8.2-14.2 15.1-20.2 27.2-23.3 2.8-.8 4.5-1.6 3.7-1.9-.8-.3-3.8-1.3-6.7-2.2-10.4-3.3-17.7-10.3-25.8-25-9-16.2-21.4-25.1-38.7-27.8-4.8-.8-8.9-1.3-9-1.2zM14.2 540.2c-2.7 4.5-3.6 7.6-3.3 11.9.3 5.9.8 7.6 5.1 16.7l4.1 8.7-.6-5c-.4-2.8-.8-6.4-1-8-.3-2.7-1.7-23.1-1.8-26.3 0-1.8-.3-1.5-2.5 2z"/></svg>